<svg xmlns="http://www.w3.org/2000/svg" xmlns:xlink="http://www.w3.org/1999/xlink" viewBox="0 0 604.5 604.5"><defs><style>.cls-1,.cls-2{fill:none;stroke-miterlimit:10;stroke-width:9px;}.cls-1{stroke:url(#linear-gradient);}.cls-2{stroke:url(#linear-gradient-2);}</style><linearGradient id="linear-gradient" x1="209" y1="302.25" x2="395.8" y2="302.25" gradientUnits="userSpaceOnUse"><stop offset="0.29" stop-color="#0017bf"/><stop offset="1" stop-color="#157fff"/></linearGradient><linearGradient id="linear-gradient-2" x1="0" y1="302.25" x2="604.5" y2="302.25" xlink:href="#linear-gradient"/></defs><title>facebook</title><g id="Layer_2" data-name="Layer 2"><g id="Layer_1-2" data-name="Layer 1"><path class="cls-1" d="M213.5,302.9V234.49c9.63,0,18.89-.41,28.1.14,6.7.4,8.1-2.19,8.24-8.41.43-18.57,0-37.36,2.81-55.62,5-32.5,30.3-55.29,62.9-57.52,22.49-1.54,45.12-1,67.68-1.54,4.63-.11,6,1.91,6,6.3q-.22,28,0,55.91c0,4.68-1.94,6.07-6.27,6-11.87-.13-23.76-.09-35.64,0-10.33.08-15.45,5-15.64,15.38-.2,10.94.14,21.9-.18,32.84-.16,5.46,2.23,6.66,7.13,6.58,14.44-.23,28.89-.08,43.33-.08h8.95c-2.05,23.11-4,45.36-6.08,68.4H341.5c-9.93,0-9.94,0-9.95,9.89q0,84.91,0,169.82c0,10.32,0,10.34-10.55,10.34H259.5c-9.71,0-9.81-.08-9.81-9.67q0-85.62,0-171.23c0-9.14,0-9.14-9.28-9.15Z"/><circle class="cls-2" cx="302.25" cy="302.25" r="297.75"/></g></g></svg>