<svg xmlns="http://www.w3.org/2000/svg" xmlns:xlink="http://www.w3.org/1999/xlink" viewBox="0 0 604.18 605"><defs><style>.cls-1{fill:none;stroke-miterlimit:10;stroke-width:9px;stroke:url(#linear-gradient);}</style><linearGradient id="linear-gradient" y1="302.5" x2="604.18" y2="302.5" gradientUnits="userSpaceOnUse"><stop offset="0.29" stop-color="#0017bf"/><stop offset="1" stop-color="#157fff"/></linearGradient></defs><title>Asset 1</title><g id="Layer_2" data-name="Layer 2"><g id="Layer_1-2" data-name="Layer 1"><path class="cls-1" d="M302.9,600.5C139.21,600.72,4.68,466.15,4.5,302,4.32,139,138.26,4.78,301.36,4.5c164.29-.28,298.64,134,298.32,298.09C599.36,465.78,465.37,600.28,302.9,600.5Zm74.3-59c114.07-31.13,194-164.58,171.24-282.92-26-135.28-142.83-219.3-283.25-203.72C144.66,68.2,47.41,184.65,52.69,309.3c4.58,108.07,95.83,227,177,229.9,2.44-32-6.51-66.43,20.93-93.44-10-2.06-17.53-3.57-25.06-5.19C142.7,422.79,97.2,344.32,127.75,265.4c10.39-26.82,23.26-51,17-80.83-1.34-6.34,2.15-13.76,3.6-20.64,2.44-11.62,8.75-17.83,21-13,16.86,6.69,33.28,14.54,50.29,20.81a73.87,73.87,0,0,0,25.74,4.82c34.93-.34,70-4.15,104.69-1.57,17.73,1.32,31.46-.13,47.42-8.09,16.75-8.34,36.59-10.5,55.09-15.36,2.75,19.69,7.29,39.36,7.58,59.09.17,11.43.84,20.21,7.5,30.4,48.13,73.53,6.49,178.13-78.28,198.22-10.59,2.51-21.4,4.11-34.55,6.59C386.37,472.89,372.49,508.53,377.2,541.47Z"/></g></g></svg>