<svg xmlns="http://www.w3.org/2000/svg" viewBox="0 0 1305.85 1307.64"><title>githubicon</title><g id="Layer_2" data-name="Layer 2"><g id="Layer_1-2" data-name="Layer 1"><path d="M654.71,1307.64C295.56,1308.12.39,1012.87,0,652.75-.39,295.13,293.48.61,651.31,0c360.48-.61,655.23,293.92,654.54,654C1305.15,1012.06,1011.16,1307.17,654.71,1307.64Zm163-129.51C1068,1109.83,1243.35,817,1193.42,557.4,1136.35,260.59,880,76.25,572,110.42,307.51,139.75,94.14,395.26,105.73,668.74c10,237.11,210.25,497.94,388.4,504.42,5.37-70.23-14.27-145.76,45.93-205-21.87-4.52-38.45-7.84-55-11.39-181.86-39-281.68-211.18-214.65-384.34,22.78-58.84,51-111.92,37.23-177.34-2.94-13.92,4.71-30.18,7.89-45.28,5.37-25.51,19.21-39.13,46.12-28.46,37,14.67,73,31.91,110.33,45.66,17.78,6.55,37.63,10.76,56.48,10.58,76.64-.76,153.66-9.1,229.71-3.45,38.9,2.9,69-.3,104-17.74,36.76-18.32,80.29-23.05,120.86-33.72,6,43.21,16,86.36,16.64,129.65.37,25.07,1.83,44.34,16.46,66.69,105.61,161.33,14.23,390.83-171.75,434.92-23.24,5.51-47,9-75.8,14.45C837.83,1027.66,807.39,1105.87,817.71,1178.13Z"/></g></g></svg>