<svg xmlns="http://www.w3.org/2000/svg" viewBox="0 0 1256.55 1256.54"><title>linkicon</title><g id="Layer_2" data-name="Layer 2"><g id="Layer_1-2" data-name="Layer 1"><path d="M1256.55,316.58c-4.58,21.47-7.84,43.32-14,64.31-13.27,45.11-37.25,84.38-70.42,117.65-91.82,92.1-182.84,185-276.26,275.49-106.4,103-289.94,108.34-404-4.42-32.93-32.54-35.48-82.11-5.68-116.23,28.44-32.59,79.87-36.66,115.3-8.3,18.24,14.61,35.87,29.37,59.35,35.45,45,11.66,85.44,3.64,119.67-27.77,27.69-25.42,53.69-52.7,80.33-79.27q94.23-94,188.29-188.22c57.46-57.91,50.15-149-15.08-194.48-49.45-34.49-117-28.13-161.71,16Q797.63,280.42,724,355.15c-12.35,12.61-23.9,15.54-40.32,9-41.08-16.39-84.19-23-128.32-22.95-10.25,0-18.52-3-23-12.85-4.61-10.12-.73-18.3,6.43-25.43,76.55-76.13,151.49-154,230.11-227.91,114.35-107.55,302.38-97.63,408.51,18.3,43.34,47.35,69.14,102.47,76.89,166.14.43,3.55,1.51,7,2.28,10.53Z"/><path d="M270,1256.54c-27.31-6.57-55.45-10.79-81.77-20.13C61.78,1191.52-18.63,1051.31,3.72,919.05c11-65.13,39.74-120.41,86.24-166.9Q219.25,622.9,348.45,493.56c100.45-99.93,245.66-118.22,364.48-45.87,25.16,15.32,49.62,32.48,65.6,58,21,33.56,14.39,78.17-13.76,103.12-30.8,27.3-76.57,29.45-108.3,4.24-18.9-15-36.88-30.67-61.29-36.94-43.06-11-81.66-3.37-116.2,24.57a141.46,141.46,0,0,0-10.81,10Q337.54,741.18,207,871.78c-45.23,45.36-52.35,112.19-17.88,162.44,44.64,65.08,135.94,73.56,193.42,17.33,41.51-40.61,82.17-82.08,123.21-123.17,6.94-7,14.77-13.22,20.64-21,14.64-19.35,31-21.76,53.46-12.45,36.56,15.15,75.7,19.83,115.22,20.44a103.88,103.88,0,0,1,11,.29c18.18,2.21,25.88,20.1,14.45,34.36-5.6,7-12.39,13-18.77,19.37-70.71,70.41-140.75,141.51-212.41,210.93-43.86,42.49-98.06,65.41-158.48,73.64-4,.54-7.89,1.69-11.83,2.55Z"/></g></g></svg>