<svg xmlns="http://www.w3.org/2000/svg" xmlns:xlink="http://www.w3.org/1999/xlink" viewBox="0 0 604.5 604.5"><defs><style>.cls-1,.cls-2,.cls-3,.cls-4{fill:none;stroke-miterlimit:10;stroke-width:9px;}.cls-1{stroke:url(#linear-gradient);}.cls-2{stroke:url(#linear-gradient-2);}.cls-3{stroke:url(#linear-gradient-3);}.cls-4{stroke:url(#linear-gradient-4);}</style><linearGradient id="linear-gradient" y1="302.25" x2="604.5" y2="302.25" gradientUnits="userSpaceOnUse"><stop offset="0.29" stop-color="#0017bf"/><stop offset="1" stop-color="#157fff"/></linearGradient><linearGradient id="linear-gradient-2" x1="260.75" y1="336.4" x2="438.84" y2="336.4" xlink:href="#linear-gradient"/><linearGradient id="linear-gradient-3" x1="181.78" y1="337.91" x2="241.79" y2="337.91" xlink:href="#linear-gradient"/><linearGradient id="linear-gradient-4" x1="174.79" y1="210.77" x2="244.72" y2="210.77" xlink:href="#linear-gradient"/></defs><title>linkedIn</title><g id="Layer_2" data-name="Layer 2"><g id="Layer_1-2" data-name="Layer 1"><circle class="cls-1" cx="302.25" cy="302.25" r="297.75"/><path class="cls-2" d="M322.23,277.89c20.34-28,63.45-28.48,86.31-11.86,14.82,10.77,22.06,26,24.48,43.58,1.24,9,1.11,18.24,1.16,27.37.14,25-.07,50,.16,75,.05,4.8-1.67,6-6,5.91-15.16-.18-30.32-.22-45.47,0-4.93.09-6.65-1.33-6.61-6.49.24-26,.37-52-.07-77.95a59.41,59.41,0,0,0-3.94-19.83c-4.5-11.7-15.31-15.49-25.4-14.42-12,1.27-21.91,10.47-23.64,21.16a66,66,0,0,0-.89,10.4c-.07,26.66-.14,53.31.06,80,0,4.58-1.31,6.14-5.89,6.08q-22.49-.3-45,0c-4.83.07-6.22-1.64-6.21-6.39q.25-73.95.09-147.92c0-4,1.11-5.58,5.34-5.52q23.24.3,46.47,0c3.87,0,5.4,1.06,5.15,5.09C322,267.14,322.23,272.25,322.23,277.89Z"/><path class="cls-3" d="M237.2,338c0,24.49-.1,49,.09,73.45,0,4.7-1.28,6.51-6.17,6.41-13-.26-26-.2-39,0-4.23,0-5.88-1.26-5.87-5.72q.18-74.2,0-148.4c0-4.32,1.28-5.85,5.71-5.77,13.15.24,26.31.28,39.47,0,4.82-.11,5.84,1.75,5.82,6.12C237.12,288.71,237.2,313.36,237.2,338Z"/><path class="cls-4" d="M179.29,210.86c0-16.87,12.45-28.65,30.34-28.7,18.06,0,30.63,11.89,30.59,29.06S228,239.56,209.63,239.38,179.29,227.94,179.29,210.86Z"/></g></g></svg>