<svg xmlns="http://www.w3.org/2000/svg" viewBox="0 0 1306.91 1306.91"><title>linkedinicon</title><g id="Layer_2" data-name="Layer 2"><g id="Layer_1-2" data-name="Layer 1"><path d="M653.46,0C292.56,0,0,292.56,0,653.46s292.56,653.45,653.46,653.45,653.45-292.56,653.45-653.45S1014.35,0,653.46,0ZM464.09,959c-34.21-.68-68.44-.53-102.65-.07-11.15.16-15.49-3.3-15.46-15q.48-195.45,0-390.9c0-11.37,3.36-15.4,15-15.19,34.65.63,69.32.75,104,0,12.7-.29,15.4,4.6,15.32,16.12-.41,64.93-.2,129.86-.2,194.79,0,64.49-.27,129,.24,193.47C480.44,954.47,477,959.24,464.09,959ZM407.47,488.84c-48.35-.47-79.89-30.13-79.89-75.13,0-44.44,32.79-75.46,79.9-75.58,47.58-.13,80.68,31.3,80.58,76.52C488,459.67,455.76,489.31,407.47,488.84Zm576,470.09c-39.92-.47-79.86-.6-119.77.06-13,.21-17.53-3.52-17.4-17.09.62-68.45,1-136.91-.2-205.34a155.82,155.82,0,0,0-10.38-52.22c-11.85-30.82-40.31-40.81-66.9-38-31.65,3.34-57.71,27.6-62.27,55.73a176.29,176.29,0,0,0-2.34,27.42c-.19,70.2-.37,140.4.16,210.6.09,12.07-3.46,16.18-15.52,16q-59.24-.78-118.47,0c-12.72.19-16.4-4.32-16.36-16.83q.66-194.8.23-389.62c0-10.64,2.93-14.7,14.07-14.56q61.2.79,122.42,0c10.18-.11,14.21,2.79,13.56,13.41-.82,13.39-.2,26.86-.2,41.71,53.59-73.65,167.12-75,227.35-31.24,39,28.38,58.09,68.51,64.47,114.78,3.27,23.74,2.94,48.06,3.07,72.12.37,65.81-.2,131.63.42,197.44C999.5,956,995,959.06,983.44,958.93Z"/></g></g></svg>